inDegrees=no
num_controls=7
num_derivatives=13
num_iterations=107
num_multipliers=7
num_parameters=0
num_slacks=7
num_states=26
objective=0.247829
objective_accelerations=0.000000
objective_balance=0.001794
objective_effort=0.049438
objective_height=0.188097
objective_ligament=0.008501
solver_duration=1476.072079
status=Solve_Succeeded
success=true
DataType=double
version=3
OpenSimVersion=4.5
endheader
time	/jointset/ground_pelvis/pelvis_tilt/value	/jointset/ground_pelvis/pelvis_tx/value	/jointset/ground_pelvis/pelvis_ty/value	/jointset/hip_l/hip_flexion_l/value	/jointset/hip_l/hip_adduction_l/value	/jointset/hip_l/hip_rotation_l/value	/jointset/back/lumbar_extension/value	/jointset/patellofemoral_l/patellar_flexion_l/value	/jointset/knee_l/knee_flexion_l/value	/jointset/knee_l/knee_adduction_l/value	/jointset/knee_l/knee_rotation_l/value	/jointset/ankle_l/ankle_angle_l/value	/jointset/subtalar_l/subtalar_angle_l/value	/jointset/ground_pelvis/pelvis_tilt/speed	/jointset/ground_pelvis/pelvis_tx/speed	/jointset/ground_pelvis/pelvis_ty/speed	/jointset/hip_l/hip_flexion_l/speed	/jointset/hip_l/hip_adduction_l/speed	/jointset/hip_l/hip_rotation_l/speed	/jointset/back/lumbar_extension/speed	/jointset/patellofemoral_l/patellar_flexion_l/speed	/jointset/knee_l/knee_flexion_l/speed	/jointset/knee_l/knee_adduction_l/speed	/jointset/knee_l/knee_rotation_l/speed	/jointset/ankle_l/ankle_angle_l/speed	/jointset/subtalar_l/subtalar_angle_l/speed	/forceset/tau_hip_flexion_l	/forceset/tau_hip_adduction_l	/forceset/tau_hip_rotation_l	/forceset/tau_knee_flexion_l	/forceset/tau_ankle_angle_l	/forceset/tau_subtalar_angle_l	/forceset/tau_lumbar_extension	lambda_cid13_p0	lambda_cid13_p1	lambda_cid13_p2	lambda_cid13_p3	lambda_cid13_p4	lambda_cid13_p5	lambda_cid14_p0	/jointset/ground_pelvis/pelvis_tilt/accel	/jointset/ground_pelvis/pelvis_tx/accel	/jointset/ground_pelvis/pelvis_ty/accel	/jointset/hip_l/hip_flexion_l/accel	/jointset/hip_l/hip_adduction_l/accel	/jointset/hip_l/hip_rotation_l/accel	/jointset/back/lumbar_extension/accel	/jointset/patellofemoral_l/patellar_flexion_l/accel	/jointset/knee_l/knee_flexion_l/accel	/jointset/knee_l/knee_adduction_l/accel	/jointset/knee_l/knee_rotation_l/accel	/jointset/ankle_l/ankle_angle_l/accel	/jointset/subtalar_l/subtalar_angle_l/accel	gamma_cid13_p0	gamma_cid13_p1	gamma_cid13_p2	gamma_cid13_p3	gamma_cid13_p4	gamma_cid13_p5	gamma_cid14_p0
0	0.05171297623282652	0.1065308585436007	0.9029439903411871	0.1266922784136757	-0.3694780324786234	-0.2022317211229171	-0.2144969558742783	0.2051545070141879	0.2051545070141877	-0.174517785476779	-0.1383002157706791	0.09024313228550125	0.07935051965849262	0	0	0	0	0	0	0	0	0	0	0	0	0	0.1858939800161117	-0.1369565852955043	0.06512130090300131	0.3007635486052989	0.1164719795977418	-0.1368136273453448	-0.4842767383229444	92.92305294019751	38.40885835812171	-0.9911874423787077	-256.3376715666721	999.973118712982	114.5392359261924	-25.52994319522211	114.319332531978	-30.45757030114294	-21.49057126828133	344.9151096804011	102.7522649389934	83.30469649842078	-236.1785867994115	711.5460252438469	711.5460252433779	371.6382546007447	-124.9801170557513	345.007192348974	213.9351347922381	-0.001118366180545417	0.01756753337378787	-0.02237663406104841	0.001487505357675736	0.01511237430982607	0.03300459172021512	0.001808666802721969
0.01	0.05499709969679052	0.105094516039764	0.901706125023946	0.1450139971781892	-0.3644663426615788	-0.1985800517767567	-0.2232174610048538	0.2381306161378201	0.2381306161378151	-0.1565936329552249	-0.1437800948023197	0.1060816313397479	0.08959832807706966	0.4747627640209387	-0.2755796424946972	-0.2889179752574038	3.595491052533824	0.9163830935172516	0.6801600150149947	-1.486540540819914	6.162227166804287	6.162227166803135	3.356645517046722	-0.8958582211996379	2.940792745382236	1.928517398007274	0.1920458585173149	-0.1525671830218318	0.0511885745971581	0.2310693479375759	0.08882290969177029	-0.1456171861476637	-0.3929166220107697	78.46168690862743	46.8060725423158	-4.652403869748172	-143.8892494071814	997.4371349566842	134.960882452078	-25.4870835103814	-13.82634872764787	-24.05733141114176	-35.77167256388512	356.1404532324682	75.54649629872718	56.66157062603941	-66.2577149290299	503.250130349867	503.2501303499872	283.3245936222293	-45.79663319721401	234.2570606710847	164.121206977623	-2.568486704578325e-05	0.009113068337620116	-0.01121823926464855	0.0006019411465142335	0.006442530914180455	0.01628792963535667	0.00125099219386359
0.02	0.05745263138800101	0.1013125430734786	0.8969432275722478	0.1971454965065586	-0.3523977889612315	-0.1888687989558404	-0.2390765569847804	0.3196668105197238	0.3196668105197273	-0.1119736465900975	-0.1530001477549832	0.1444564068554634	0.1154935434102496	-0.1657183545501084	-0.4691260924897294	-0.7050064268914225	6.761956112771458	1.411372776659948	1.211916694950013	-1.427718169869771	9.712017051654474	9.712017051654517	5.339166768717175	-0.7480347842050351	4.507255292293924	3.129481382920587	0.1981977370185123	-0.1681777807481505	0.0372558482913113	0.1613751472698356	0.061173839785792	-0.1544207449499752	-0.3015565056985907	61.87426491686244	57.63369747155495	-11.07139425021313	9.116128103490121	999.9759704483324	183.4309415171133	-24.91942879249077	-108.7294439864192	-14.05093180120993	-46.9246665436043	259.1099112211633	18.47358286408237	53.62402948242556	72.89399555459993	189.0585688530271	189.0585688530277	96.81340152549087	83.75621458309679	70.14115265486423	68.42445217344614	0.001066996446453851	0.0006586033014523603	-5.984446824868969e-05	-0.0002836230646472686	-0.002227312481465158	-0.0004287324495017772	0.0006933175850052111
0.03	0.04961061074356369	0.09600162679942884	0.8874236865123545	0.2770149077928074	-0.3378336926534689	-0.1741254618846942	-0.2486112131855453	0.4240222056699391	0.4240222056699439	-0.05544954009263781	-0.1553257814655982	0.1917404315211622	0.149488738866636	-1.461451377872656	-0.5879000147226818	-1.200949994003381	9.186742670416786	1.457920716347867	1.768527877796824	-0.3947599647826122	11.04533471585594	11.04533471585598	5.787626901309004	0.3076381587722446	4.863791393934903	3.593432501021127	0.2190810612716186	-0.1395124352214175	0.02017756785625738	0.1732340006123086	0.07415480158618457	-0.1298026670883441	-0.276755358235887	64.45747959781743	49.62782215175243	-13.38148914104055	58.1610949790269	999.9638078281662	207.9254961454663	-23.21234018608866	-148.6090352628374	-10.0773529447721	-51.7169252989937	230.5597153205366	-8.951446237254926	61.40605724921279	131.1646988107971	88.27286553751419	88.27286553751284	-7.74205143277386	120.2484234432174	5.803627232714819	23.83848671084517	-0.0002914003057753083	-0.002010127366894719	0.0054333487977403	-4.69610290154742e-05	-0.003033865835091405	-0.004574875146700528	-0.0003778857656295187
